<?xml version="1.0" encoding="utf-8"?>
<!-- Generator: Adobe Illustrator 24.2.3, SVG Export Plug-In . SVG Version: 6.00 Build 0)  -->
<svg version="1.1" id="Layer_1" xmlns="http://www.w3.org/2000/svg" xmlns:xlink="http://www.w3.org/1999/xlink" x="0px" y="0px"
	 viewBox="0 0 215 18" style="enable-background:new 0 0 215 18;" xml:space="preserve">
<style type="text/css">
	.st0{fill-rule:evenodd;clip-rule:evenodd;}
</style>
<g>
	<path class="st0" d="M27.6,9.3c0-1.3,0.2-2.4,0.7-3.4c0.4-1,1.1-1.9,1.9-2.6c0.8-0.7,1.8-1.3,2.8-1.7C34,1.2,35.2,1,36.3,1
		c1.2,0,2.4,0.2,3.5,0.6s2,0.9,2.8,1.6l-3.3,3.9c-0.3-0.4-0.7-0.7-1.1-0.9c-0.5-0.2-1-0.3-1.5-0.3c-0.4,0-0.9,0.1-1.3,0.2
		c-0.4,0.2-0.7,0.4-1,0.7c-0.3,0.3-0.5,0.7-0.7,1.1c-0.2,0.4-0.3,0.9-0.3,1.4s0.1,1,0.3,1.4c0.2,0.4,0.4,0.8,0.7,1.1
		c0.3,0.3,0.6,0.5,1,0.7c0.4,0.2,0.8,0.2,1.3,0.2c0.6,0,1.2-0.1,1.6-0.4c0.4-0.3,0.8-0.5,1.1-0.9l3.3,3.9C41.9,16,41,16.5,40,17
		c-1.1,0.4-2.3,0.6-3.6,0.6c-1.2,0-2.4-0.2-3.4-0.6c-1-0.4-2-1-2.8-1.7c-0.8-0.7-1.4-1.6-1.9-2.6C27.8,11.7,27.6,10.5,27.6,9.3
		 M52.9,9.2c0-1.3,0.2-2.4,0.7-3.4c0.4-1,1.1-1.9,1.9-2.6c0.8-0.7,1.7-1.3,2.8-1.6C59.4,1.2,60.6,1,61.8,1c1.3,0,2.5,0.2,3.5,0.6
		c1.1,0.4,2,0.9,2.8,1.6C69,4,69.7,4.8,70.1,5.8c0.5,1,0.7,2.1,0.7,3.4c0,1.3-0.2,2.4-0.7,3.4c-0.4,1-1.1,1.9-1.9,2.6
		c-0.8,0.7-1.8,1.3-2.8,1.7c-1.1,0.4-2.3,0.6-3.5,0.6c-1.3,0-2.5-0.2-3.5-0.6c-1-0.4-2-0.9-2.8-1.7c-0.8-0.7-1.4-1.6-1.9-2.6
		C53.1,11.6,52.9,10.5,52.9,9.2 M58.7,9.2c0,0.5,0.1,1,0.2,1.4c0.2,0.4,0.4,0.8,0.7,1.1c0.3,0.3,0.6,0.6,1,0.7
		c0.4,0.2,0.8,0.3,1.3,0.3c0.5,0,0.9-0.1,1.3-0.3c0.4-0.2,0.7-0.4,1-0.7c0.3-0.3,0.5-0.7,0.7-1.1c0.2-0.4,0.2-0.9,0.2-1.4
		c0-0.5-0.1-1-0.2-1.4c-0.1-0.4-0.4-0.8-0.7-1.1c-0.3-0.3-0.6-0.5-1-0.7c-0.4-0.2-0.8-0.2-1.3-0.2c-0.4,0-0.9,0.1-1.3,0.2
		c-0.4,0.2-0.7,0.4-1,0.7c-0.3,0.3-0.5,0.6-0.7,1.1C58.7,8.3,58.7,8.7,58.7,9.2 M82.8,17.1V1.5h6c1.3,0,2.5,0.1,3.6,0.4
		c1.2,0.2,2.2,0.7,3.1,1.3c0.9,0.6,1.6,1.4,2.1,2.4c0.5,1,0.8,2.2,0.8,3.7c0,1.4-0.3,2.6-0.8,3.6c-0.5,1-1.2,1.8-2,2.5
		c-0.9,0.7-1.9,1.1-2.9,1.4c-1.1,0.3-2.3,0.5-3.5,0.5C89.3,17.1,82.8,17.1,82.8,17.1z M88,5.9v6.7h1c1.3,0,2.3-0.3,2.9-0.8
		c0.7-0.5,1-1.4,1-2.6c0-1-0.3-1.8-1-2.4c-0.7-0.6-1.6-0.9-2.7-0.9C89.2,5.9,88,5.9,88,5.9z M110.5,17.1h5.5V1.5h-5.5V17.1z
		 M128,9.3c0-1.3,0.2-2.4,0.7-3.4c0.4-1,1.1-1.9,1.9-2.6c0.8-0.7,1.8-1.3,2.8-1.7c1.1-0.4,2.3-0.6,3.4-0.6c1.2,0,2.4,0.2,3.5,0.6
		c1.1,0.4,2,0.9,2.8,1.6l-3.3,3.9c-0.3-0.4-0.7-0.7-1.1-0.9c-0.5-0.2-1-0.3-1.5-0.3c-0.4,0-0.9,0.1-1.3,0.2c-0.4,0.2-0.7,0.4-1,0.7
		c-0.3,0.3-0.5,0.7-0.7,1.1c-0.2,0.4-0.3,0.9-0.3,1.4s0.1,1,0.3,1.4c0.2,0.4,0.4,0.8,0.7,1.1c0.3,0.3,0.6,0.5,1,0.7
		c0.4,0.2,0.8,0.2,1.3,0.2c0.6,0,1.2-0.1,1.6-0.4c0.4-0.3,0.8-0.5,1.1-0.9l3.3,3.9c-0.7,0.7-1.6,1.3-2.7,1.7
		c-1.1,0.4-2.3,0.6-3.6,0.6c-1.2,0-2.4-0.2-3.4-0.6c-1-0.4-2-1-2.8-1.7c-0.8-0.7-1.4-1.6-1.9-2.6C128.2,11.7,128,10.5,128,9.3
		 M158.5,1.5h5.8l6.3,15.7h-5.9l-0.8-2.3h-5.1l-0.8,2.3h-5.7C152.2,17.1,158.5,1.5,158.5,1.5z M161.3,6.9l-1.3,3.9h2.6L161.3,6.9
		L161.3,6.9z M188.1,17.1h-5.4V5.9h-4V1.5h13.3v4.4h-4V17.1z M203.5,1.5v15.7H215v-4.4h-6.4v-1.5h5.6V7.2h-5.6V5.9h6V1.5H203.5z
		 M7.5,17.2h9.8V0.4H7.5V17.2z"/>
	<path class="st0" d="M0,17.2h17.2V7.7H0V17.2z"/>
</g>
</svg>
